<svg xmlns="http://www.w3.org/2000/svg" xmlns:xlink="http://www.w3.org/1999/xlink" viewBox="0 0 370.04 96.9"><defs><style>.cls-1{fill:none;}.cls-2{isolation:isolate;}.cls-3{fill:#5282bc;}.cls-4{clip-path:url(#clip-path);}.cls-5{fill:#dde3e9;}.cls-6{fill:#dce3e9;}.cls-7{fill:#dbe2e9;}.cls-8{fill:#d9e2e8;}.cls-9{fill:#d8e1e8;}.cls-10{fill:#d7e1e8;}.cls-11{fill:#d6e0e8;}.cls-12{fill:#d5e0e8;}.cls-13{fill:#d4dfe8;}.cls-14{fill:#d3dfe8;}.cls-15{fill:#d2dee8;}.cls-16{fill:#d1dee8;}.cls-17{fill:#d0dde8;}.cls-18{fill:#cfdde8;}.cls-19{fill:#cedce8;}.cls-20{fill:#cddce8;}.cls-21{fill:#ccdbe8;}.cls-22{fill:#cadbe7;}.cls-23{fill:#c9dae7;}.cls-24{fill:#c8dae7;}.cls-25{fill:#c7d9e7;}.cls-26{fill:#c6d9e7;}.cls-27{fill:#c5d8e7;}.cls-28{fill:#c4d8e7;}.cls-29{fill:#c3d7e7;}.cls-30{fill:#c2d7e7;}.cls-31{fill:#c1d6e7;}.cls-32{fill:#c0d6e7;}.cls-33{fill:#bfd5e7;}.cls-34{fill:#bed5e7;}.cls-35{fill:#bdd4e7;}.cls-36{fill:#bcd4e7;}.cls-37{fill:#bbd3e7;}.cls-38{fill:#bad3e6;}.cls-39{fill:#b9d2e6;}.cls-40{fill:#b8d2e6;}.cls-41{fill:#b7d1e6;}.cls-42{fill:#b6d1e6;}.cls-43{fill:#b5d0e6;}.cls-44{fill:#b4d0e6;}.cls-45{fill:#b3cfe6;}.cls-46{fill:#b2cfe6;}.cls-47{fill:#b1cee6;}.cls-48{fill:#b0cee6;}.cls-49{fill:#afcde6;}.cls-50{fill:#adcce5;}.cls-51{fill:#accce5;}.cls-52{fill:#abcbe5;}.cls-53{fill:#aacbe5;}.cls-54{fill:#a9cae5;}.cls-55{fill:#a8cae5;}.cls-56{fill:#a7c9e5;}.cls-57{fill:#a6c9e5;}.cls-58{fill:#a5c8e5;}.cls-59{fill:#a4c8e5;}.cls-60{fill:#a3c7e5;}.cls-61{fill:#a2c7e4;}.cls-62{fill:#a1c6e4;}.cls-63{fill:#a0c6e4;}.cls-64{fill:#9fc5e4;}.cls-65{fill:#9ec5e4;}.cls-66{fill:#9dc4e4;}.cls-67{fill:#9cc4e4;}.cls-68{fill:#9bc4e4;}.cls-69{fill:#9ac5e3;}.cls-70{fill:#99c5e3;}.cls-71{fill:#98c5e2;}.cls-72{fill:#97c6e2;}.cls-73{fill:#96c6e2;}.cls-74{fill:#94c6e1;}.cls-75{fill:#93c6e1;}.cls-76{fill:#92c7e1;}.cls-77{fill:#91c7e0;}.cls-78{fill:#90c7e0;}.cls-79{fill:#8fc8df;}.cls-80{fill:#8ec8df;}.cls-81{fill:#8dc8df;}.cls-82{fill:#8cc9de;}.cls-83{fill:#8bc9de;}.cls-84{fill:#8ac9dd;}.cls-85{fill:#89cadd;}.cls-86{fill:#87cadd;}.cls-87{fill:#86cadc;}.cls-88{fill:#85cadc;}.cls-89{fill:#84cbdb;}.cls-90{fill:#83cbdb;}.cls-91{fill:#82cbdb;}.cls-92{fill:#81ccda;}.cls-93{fill:#80ccda;}.cls-94{fill:#7eccda;}.cls-95{fill:#7dcdd9;}.cls-96{fill:#7ccdd9;}.cls-97{fill:#7aced8;}.cls-98{fill:#79cdd8;}.cls-99{fill:#79ccd7;}.cls-100{fill:#78cbd7;}.cls-101{fill:#78cad7;}.cls-102{fill:#77c9d6;}.cls-103{fill:#77c8d6;}.cls-104{fill:#76c7d5;}.cls-105{fill:#76c6d5;}.cls-106{fill:#75c5d5;}.cls-107{fill:#75c4d4;}.cls-108{fill:#74c3d4;}.cls-109{fill:#73c2d4;}.cls-110{fill:#73c1d3;}.cls-111{fill:#72c0d3;}.cls-112{fill:#72bfd2;}.cls-113{fill:#71bed2;}.cls-114{fill:#71bdd2;}.cls-115{fill:#70bcd1;}.cls-116{fill:#70bbd1;}.cls-117{fill:#6fbad1;}.cls-118{fill:#6fb9d0;}.cls-119{fill:#6eb8d0;}.cls-120{fill:#6db7d0;}.cls-121{fill:#6db6cf;}.cls-122{fill:#6cb5cf;}.cls-123{fill:#6cb4ce;}.cls-124{fill:#6bb3ce;}.cls-125{fill:#6bb2ce;}.cls-126{fill:#6ab1cd;}.cls-127{fill:#6ab0cd;}.cls-128{fill:#69afcd;}.cls-129{fill:#69aecc;}.cls-130{fill:#68adcc;}.cls-131{fill:#68accc;}.cls-132{fill:#67aacb;}.cls-133{fill:#66a9cb;}.cls-134{fill:#66a8ca;}.cls-135{fill:#65a7ca;}.cls-136{fill:#65a6ca;}.cls-137{fill:#64a5c9;}.cls-138{fill:#64a4c9;}.cls-139{fill:#63a3c9;}.cls-140{fill:#63a2c8;}.cls-141{fill:#62a1c8;}.cls-142{fill:#62a0c7;}.cls-143{fill:#619fc7;}.cls-144{fill:#609ec7;}.cls-145{fill:#609dc6;}.cls-146{fill:#5f9cc6;}.cls-147{fill:#5f9bc6;}.cls-148{fill:#5e9ac5;}.cls-149{fill:#5e99c5;}.cls-150{fill:#5d98c5;}.cls-151{fill:#5d97c4;}.cls-152{fill:#5c96c4;}.cls-153{fill:#5c95c3;}.cls-154{fill:#5b94c3;}.cls-155{fill:#5a93c3;}.cls-156{fill:#5a92c2;}.cls-157{fill:#5991c2;}.cls-158{fill:#5990c2;}.cls-159{fill:#588fc1;}.cls-160{fill:#588ec1;}.cls-161{fill:#578dc0;}.cls-162{fill:#578cc0;}.cls-163{fill:#568bc0;}.cls-164{fill:#568abf;}.cls-165{fill:#5589bf;}.cls-166{fill:#5588be;}.cls-167{fill:#5588bd;}.cls-168{fill:#5487bc;}.cls-169{fill:#5486bb;}.cls-170{fill:#5486ba;}.cls-171{fill:#5485b9;}.cls-172{fill:#5384b8;}.cls-173{fill:#5383b7;}.cls-174{fill:#5383b6;}.cls-175{fill:#5382b5;}.cls-176{fill:#5281b4;}.cls-177{fill:#5281b3;}.cls-178{fill:#5280b2;}.cls-179{fill:#527fb1;}.cls-180{fill:#517faf;}.cls-181{fill:#517eae;}.cls-182{fill:#517dad;}.cls-183{fill:#517dac;}.cls-184{fill:#507cab;}.cls-185{fill:#507baa;}.cls-186{fill:#507ba9;}.cls-187{fill:#507aa8;}.cls-188{fill:#4f79a7;}.cls-189{fill:#4f78a6;}.cls-190{fill:#4f78a5;}.cls-191{fill:#4f77a4;}.cls-192{fill:#4e76a3;}.cls-193{fill:#4e76a2;}.cls-194{fill:#4e75a1;}</style><clipPath id="clip-path"><path class="cls-1" d="M68.93,35.2A206.25,206.25,0,0,1,122.75,9.5,193.93,193.93,0,0,1,152,2.67c2.47-.47,5-.71,7.45-1s5-.67,7.48-.79l7.51-.53c2.51-.12,5-.12,7.53-.18a190.45,190.45,0,0,1,30,1.86,204.71,204.71,0,0,1,57.81,16.63,206.94,206.94,0,0,1,26.53,14.46,2.5,2.5,0,1,1-2.69,4.22,221.94,221.94,0,0,0-26-13.89,206.32,206.32,0,0,0-27.53-10.33,211.42,211.42,0,0,0-116.6-1.21,221,221,0,0,0-54.53,23.3Z"/></clipPath></defs><title>Asset 1</title><g id="Layer_2" data-name="Layer 2"><g id="Layer_1-2" data-name="Layer 1"><g id="Layer_1-2-2" data-name="Layer 1-2"><g class="cls-2"><g class="cls-2"><path class="cls-3" d="M0,48.68c0-10.39,7.91-18,18.61-18,5.17,0,9.84,1.72,13,5.17l-2.38,2.39A14,14,0,0,0,18.71,34c-8.57,0-15,6.28-15,14.7s6.44,14.71,15,14.71a13.93,13.93,0,0,0,10.5-4.26l2.38,2.38c-3.14,3.45-7.81,5.22-13,5.22C7.91,66.73,0,59.08,0,48.68Z"/></g><g class="cls-2"><path class="cls-3" d="M33.42,53.09A13.12,13.12,0,0,1,47,39.55,13.08,13.08,0,0,1,60.54,53.09,13.12,13.12,0,0,1,47,66.68,13.16,13.16,0,0,1,33.42,53.09Zm23.47,0c0-6.23-4.21-10.39-9.89-10.39s-9.93,4.16-9.93,10.39,4.26,10.4,9.93,10.4S56.89,59.33,56.89,53.09Z"/><path class="cls-3" d="M90.92,51V66.43h-3.6V51.32c0-5.63-2.94-8.52-8-8.52-5.73,0-9.33,3.55-9.33,9.63v14h-3.6V39.76h3.45v4.92c1.92-3.25,5.52-5.13,10.14-5.13C86.46,39.55,90.92,43.31,90.92,51Z"/></g><g class="cls-2"><path class="cls-3" d="M123.61,51V66.43H120V51.32c0-5.63-2.94-8.52-8-8.52-5.73,0-9.33,3.55-9.33,9.63v14h-3.6V39.76h3.45v4.92c1.93-3.25,5.53-5.13,10.14-5.13C119.15,39.55,123.61,43.31,123.61,51Z"/></g><g class="cls-2"><path class="cls-3" d="M155.16,54.21H132.85c.4,5.58,4.66,9.28,10.49,9.28A10.5,10.5,0,0,0,151.5,60l2,2.33a13.11,13.11,0,0,1-10.29,4.36c-8.32,0-14-5.68-14-13.59s5.52-13.54,13-13.54,12.93,5.53,12.93,13.54C155.21,53.4,155.16,53.8,155.16,54.21Zm-22.31-2.69h18.91a9.47,9.47,0,0,0-18.91,0Z"/></g><g class="cls-2"><path class="cls-3" d="M158.3,53.09c0-8,5.78-13.54,13.74-13.54,4.51,0,8.31,1.78,10.44,5.28l-2.69,1.82A9.06,9.06,0,0,0,172,42.7c-5.83,0-10.09,4.16-10.09,10.39s4.26,10.4,10.09,10.4a9,9,0,0,0,7.75-3.91l2.69,1.83c-2.13,3.45-5.93,5.27-10.44,5.27C164.08,66.68,158.3,61.05,158.3,53.09Z"/></g><g class="cls-2"><path class="cls-3" d="M202.31,64.8a8.57,8.57,0,0,1-5.63,1.88c-5,0-7.81-2.84-7.81-7.76V42.8H184.1v-3h4.77V33.93h3.6v5.83h8.11v3h-8.11V58.72c0,3.14,1.62,4.87,4.62,4.87A6,6,0,0,0,201,62.22Z"/></g><g class="cls-2"><path class="cls-3" d="M204.8,51.12h13.28v3.14H204.8Z"/><path class="cls-3" d="M255,30.93v35.5h-3.7V50.05H229.13V66.43h-3.75V30.93h3.75V46.75h22.21V30.93Z"/><path class="cls-3" d="M261.64,53.09c0-7.91,5.78-13.54,13.59-13.54a13.08,13.08,0,0,1,13.54,13.54,13.57,13.57,0,1,1-27.13,0Zm23.48,0c0-6.23-4.21-10.39-9.89-10.39s-9.94,4.16-9.94,10.39,4.26,10.4,9.94,10.4S285.12,59.33,285.12,53.09Z"/></g><g class="cls-2"><path class="cls-3" d="M338.46,51V66.43h-3.61V51.32c0-5.63-2.83-8.52-7.65-8.52-5.48,0-8.93,3.55-8.93,9.63v14h-3.6V51.32c0-5.63-2.84-8.52-7.7-8.52-5.43,0-8.93,3.55-8.93,9.63v14h-3.6V39.76h3.45v4.87c1.88-3.2,5.32-5.08,9.79-5.08s7.86,1.88,9.48,5.63c1.93-3.45,5.73-5.63,10.55-5.63C334.2,39.55,338.46,43.31,338.46,51Z"/></g><g class="cls-2"><path class="cls-3" d="M370,54.21H347.68c.4,5.58,4.66,9.28,10.49,9.28a10.5,10.5,0,0,0,8.16-3.5l2,2.33a13.11,13.11,0,0,1-10.29,4.36c-8.32,0-14-5.68-14-13.59s5.52-13.54,13-13.54S370,45.08,370,53.09C370,53.4,370,53.8,370,54.21Zm-22.31-2.69h18.91a9.47,9.47,0,0,0-18.91,0Z"/></g></g><g class="cls-4"><rect class="cls-5" x="68.93" width="0.39" height="38.08"/><rect class="cls-6" x="69.32" width="1.44" height="38.08"/><rect class="cls-7" x="70.76" width="1.44" height="38.08"/><rect class="cls-8" x="72.21" width="1.44" height="38.08"/><rect class="cls-9" x="73.65" width="1.44" height="38.08"/><rect class="cls-10" x="75.1" width="1.44" height="38.08"/><rect class="cls-11" x="76.54" width="1.44" height="38.08"/><rect class="cls-11" x="77.98" width="0.73" height="38.08"/><rect class="cls-12" x="78.72" width="0.74" height="38.08"/><rect class="cls-13" x="79.45" width="0.74" height="38.08"/><rect class="cls-14" x="80.19" width="0.73" height="38.08"/><rect class="cls-15" x="80.92" width="0.74" height="38.08"/><rect class="cls-16" x="81.66" width="0.74" height="38.08"/><rect class="cls-17" x="82.39" width="0.74" height="38.08"/><rect class="cls-18" x="83.13" width="0.73" height="38.08"/><rect class="cls-19" x="83.86" width="0.74" height="38.08"/><rect class="cls-20" x="84.6" width="0.74" height="38.08"/><rect class="cls-21" x="85.33" width="0.74" height="38.08"/><rect class="cls-22" x="86.07" width="0.73" height="38.08"/><rect class="cls-23" x="86.8" width="0.74" height="38.08"/><rect class="cls-24" x="87.54" width="0.74" height="38.08"/><rect class="cls-25" x="88.27" width="0.73" height="38.08"/><rect class="cls-26" x="89.01" width="0.74" height="38.08"/><rect class="cls-27" x="89.74" width="0.74" height="38.08"/><rect class="cls-28" x="90.48" width="0.74" height="38.08"/><rect class="cls-29" x="91.21" width="0.73" height="38.08"/><rect class="cls-30" x="91.95" width="0.74" height="38.08"/><rect class="cls-31" x="92.68" width="0.74" height="38.08"/><rect class="cls-32" x="93.42" width="0.73" height="38.08"/><rect class="cls-32" x="94.15" width="0.59" height="38.08"/><rect class="cls-33" x="94.75" width="0.59" height="38.08"/><rect class="cls-34" x="95.34" width="0.59" height="38.08"/><rect class="cls-35" x="95.94" width="0.59" height="38.08"/><rect class="cls-36" x="96.53" width="0.59" height="38.08"/><rect class="cls-37" x="97.12" width="0.59" height="38.08"/><rect class="cls-38" x="97.72" width="0.59" height="38.08"/><rect class="cls-39" x="98.31" width="0.59" height="38.08"/><rect class="cls-40" x="98.91" width="0.59" height="38.08"/><rect class="cls-41" x="99.5" width="0.59" height="38.08"/><rect class="cls-42" x="100.09" width="0.59" height="38.08"/><rect class="cls-43" x="100.69" width="0.59" height="38.08"/><rect class="cls-44" x="101.28" width="0.59" height="38.08"/><rect class="cls-45" x="101.88" width="0.59" height="38.08"/><rect class="cls-46" x="102.47" width="0.59" height="38.08"/><rect class="cls-47" x="103.06" width="0.59" height="38.08"/><rect class="cls-48" x="103.66" width="0.59" height="38.08"/><rect class="cls-49" x="104.25" width="0.59" height="38.08"/><rect class="cls-50" x="104.85" width="0.59" height="38.08"/><rect class="cls-51" x="105.44" width="0.59" height="38.08"/><rect class="cls-52" x="106.03" width="0.59" height="38.08"/><rect class="cls-53" x="106.63" width="0.59" height="38.08"/><rect class="cls-54" x="107.22" width="0.59" height="38.08"/><rect class="cls-55" x="107.82" width="0.59" height="38.08"/><rect class="cls-56" x="108.41" width="0.59" height="38.08"/><rect class="cls-57" x="109" width="0.59" height="38.08"/><rect class="cls-58" x="109.6" width="0.59" height="38.08"/><rect class="cls-59" x="110.19" width="0.59" height="38.08"/><rect class="cls-60" x="110.79" width="0.59" height="38.08"/><rect class="cls-61" x="111.38" width="0.59" height="38.08"/><rect class="cls-62" x="111.97" width="0.59" height="38.08"/><rect class="cls-63" x="112.57" width="0.59" height="38.08"/><rect class="cls-64" x="113.16" width="0.59" height="38.08"/><rect class="cls-65" x="113.76" width="0.59" height="38.08"/><rect class="cls-66" x="114.35" width="0.59" height="38.08"/><path class="cls-66" d="M114.94,38.08v0Z"/><path class="cls-67" d="M114.94,38.08v0Z"/><rect class="cls-67" x="114.94" width="0.66" height="38.08"/><rect class="cls-68" x="115.6" width="0.66" height="38.08"/><rect class="cls-69" x="116.26" width="0.66" height="38.08"/><rect class="cls-70" x="116.92" width="0.66" height="38.08"/><rect class="cls-71" x="117.58" width="0.66" height="38.08"/><rect class="cls-72" x="118.24" width="0.66" height="38.08"/><rect class="cls-73" x="118.9" width="0.66" height="38.08"/><rect class="cls-74" x="119.56" width="0.66" height="38.08"/><rect class="cls-75" x="120.22" width="0.66" height="38.08"/><rect class="cls-76" x="120.88" width="0.66" height="38.08"/><rect class="cls-77" x="121.54" width="0.66" height="38.08"/><rect class="cls-78" x="122.2" width="0.66" height="38.08"/><rect class="cls-79" x="122.86" width="0.66" height="38.08"/><rect class="cls-80" x="123.52" width="0.66" height="38.08"/><rect class="cls-80" x="124.18" width="1.26" height="38.08"/><rect class="cls-81" x="125.44" width="1.26" height="38.08"/><rect class="cls-82" x="126.7" width="1.26" height="38.08"/><rect class="cls-83" x="127.96" width="1.26" height="38.08"/><rect class="cls-84" x="129.22" width="1.26" height="38.08"/><rect class="cls-85" x="130.48" width="1.26" height="38.08"/><rect class="cls-86" x="131.74" width="1.26" height="38.08"/><rect class="cls-87" x="133" width="1.26" height="38.08"/><rect class="cls-88" x="134.26" width="1.26" height="38.08"/><rect class="cls-89" x="135.52" width="1.26" height="38.08"/><rect class="cls-90" x="136.78" width="1.26" height="38.08"/><rect class="cls-90" x="138.04" width="2.64" height="38.08"/><rect class="cls-91" x="140.68" width="2.64" height="38.08"/><rect class="cls-92" x="143.32" width="2.64" height="38.08"/><rect class="cls-93" x="145.96" width="2.64" height="38.08"/><rect class="cls-94" x="148.6" width="2.64" height="38.08"/><rect class="cls-95" x="151.24" width="2.64" height="38.08"/><rect class="cls-96" x="153.88" width="2.64" height="38.08"/><rect class="cls-96" x="156.52" width="26.57" height="38.08"/><rect class="cls-97" x="183.09" width="26.56" height="38.08"/><rect class="cls-97" x="209.65" width="0.7" height="38.08"/><rect class="cls-98" x="210.36" width="0.7" height="38.08"/><rect class="cls-99" x="211.06" width="0.7" height="38.08"/><rect class="cls-100" x="211.76" width="0.7" height="38.08"/><rect class="cls-101" x="212.47" width="0.7" height="38.08"/><rect class="cls-102" x="213.17" width="0.7" height="38.08"/><rect class="cls-103" x="213.87" width="0.7" height="38.08"/><rect class="cls-104" x="214.57" width="0.7" height="38.08"/><rect class="cls-105" x="215.28" width="0.7" height="38.08"/><rect class="cls-106" x="215.98" width="0.7" height="38.08"/><rect class="cls-107" x="216.68" width="0.7" height="38.08"/><rect class="cls-108" x="217.39" width="0.7" height="38.08"/><rect class="cls-109" x="218.09" width="0.7" height="38.08"/><rect class="cls-110" x="218.79" width="0.7" height="38.08"/><rect class="cls-111" x="219.5" width="0.7" height="38.08"/><rect class="cls-112" x="220.2" width="0.7" height="38.08"/><rect class="cls-113" x="220.9" width="0.7" height="38.08"/><rect class="cls-114" x="221.61" width="0.7" height="38.08"/><rect class="cls-115" x="222.31" width="0.7" height="38.08"/><rect class="cls-116" x="223.01" width="0.7" height="38.08"/><rect class="cls-117" x="223.71" width="0.7" height="38.08"/><rect class="cls-118" x="224.42" width="0.7" height="38.08"/><rect class="cls-119" x="225.12" width="0.7" height="38.08"/><rect class="cls-120" x="225.82" width="0.7" height="38.08"/><rect class="cls-121" x="226.53" width="0.7" height="38.08"/><rect class="cls-122" x="227.23" width="0.7" height="38.08"/><rect class="cls-123" x="227.93" width="0.7" height="38.08"/><rect class="cls-124" x="228.64" width="0.7" height="38.08"/><rect class="cls-125" x="229.34" width="0.7" height="38.08"/><rect class="cls-126" x="230.04" width="0.7" height="38.08"/><rect class="cls-127" x="230.74" width="0.7" height="38.08"/><rect class="cls-128" x="231.45" width="0.7" height="38.08"/><rect class="cls-129" x="232.15" width="0.7" height="38.08"/><rect class="cls-130" x="232.85" width="0.7" height="38.08"/><rect class="cls-131" x="233.56" width="0.7" height="38.08"/><rect class="cls-132" x="234.26" width="0.7" height="38.08"/><rect class="cls-133" x="234.96" width="0.7" height="38.08"/><rect class="cls-134" x="235.67" width="0.7" height="38.08"/><rect class="cls-135" x="236.37" width="0.7" height="38.08"/><rect class="cls-136" x="237.07" width="0.7" height="38.08"/><rect class="cls-137" x="237.78" width="0.7" height="38.08"/><rect class="cls-138" x="238.48" width="0.7" height="38.08"/><rect class="cls-139" x="239.18" width="0.7" height="38.08"/><rect class="cls-140" x="239.88" width="0.7" height="38.08"/><rect class="cls-141" x="240.59" width="0.7" height="38.08"/><rect class="cls-142" x="241.29" width="0.7" height="38.08"/><rect class="cls-143" x="241.99" width="0.7" height="38.08"/><rect class="cls-144" x="242.7" width="0.7" height="38.08"/><rect class="cls-145" x="243.4" width="0.7" height="38.08"/><rect class="cls-146" x="244.1" width="0.7" height="38.08"/><rect class="cls-147" x="244.81" width="0.7" height="38.08"/><rect class="cls-148" x="245.51" width="0.7" height="38.08"/><rect class="cls-149" x="246.21" width="0.7" height="38.08"/><rect class="cls-150" x="246.91" width="0.7" height="38.08"/><rect class="cls-151" x="247.62" width="0.7" height="38.08"/><rect class="cls-152" x="248.32" width="0.7" height="38.08"/><rect class="cls-153" x="249.02" width="0.7" height="38.08"/><rect class="cls-154" x="249.73" width="0.7" height="38.08"/><rect class="cls-155" x="250.43" width="0.7" height="38.08"/><rect class="cls-156" x="251.13" width="0.7" height="38.08"/><rect class="cls-157" x="251.84" width="0.7" height="38.08"/><rect class="cls-158" x="252.54" width="0.7" height="38.08"/><rect class="cls-159" x="253.24" width="0.7" height="38.08"/><rect class="cls-160" x="253.95" width="0.7" height="38.08"/><rect class="cls-161" x="254.65" width="0.7" height="38.08"/><rect class="cls-162" x="255.35" width="0.7" height="38.08"/><rect class="cls-163" x="256.05" width="0.7" height="38.08"/><rect class="cls-164" x="256.76" width="0.7" height="38.08"/><rect class="cls-165" x="257.46" width="0.7" height="38.08"/><rect class="cls-165" x="258.16" width="1" height="38.08"/><rect class="cls-166" x="259.16" width="1" height="38.08"/><rect class="cls-167" x="260.17" width="1" height="38.08"/><rect class="cls-168" x="261.17" width="1" height="38.08"/><rect class="cls-169" x="262.17" width="1" height="38.08"/><rect class="cls-170" x="263.17" width="1" height="38.08"/><rect class="cls-171" x="264.17" width="1" height="38.08"/><rect class="cls-172" x="265.17" width="1" height="38.08"/><rect class="cls-173" x="266.17" width="1" height="38.08"/><rect class="cls-174" x="267.17" width="1" height="38.08"/><rect class="cls-175" x="268.17" width="1" height="38.08"/><rect class="cls-176" x="269.17" width="1" height="38.08"/><rect class="cls-177" x="270.18" width="1" height="38.08"/><rect class="cls-178" x="271.18" width="1" height="38.08"/><rect class="cls-179" x="272.18" width="1" height="38.08"/><rect class="cls-180" x="273.18" width="1" height="38.08"/><rect class="cls-181" x="274.18" width="1" height="38.08"/><rect class="cls-182" x="275.18" width="1" height="38.08"/><rect class="cls-183" x="276.18" width="1" height="38.08"/><rect class="cls-184" x="277.18" width="1" height="38.08"/><rect class="cls-185" x="278.18" width="1" height="38.08"/><rect class="cls-186" x="279.18" width="1" height="38.08"/><rect class="cls-187" x="280.19" width="1" height="38.08"/><rect class="cls-188" x="281.19" width="1" height="38.08"/><rect class="cls-189" x="282.19" width="1" height="38.08"/><rect class="cls-190" x="283.19" width="1" height="38.08"/><rect class="cls-191" x="284.19" width="1" height="38.08"/><rect class="cls-192" x="285.19" width="1" height="38.08"/><rect class="cls-193" x="286.19" width="1" height="38.08"/><rect class="cls-194" x="287.19" width="1" height="38.08"/><rect class="cls-194" x="288.19" width="9.6" height="38.08"/></g></g><path class="cls-3" d="M72.1,76.22H64.77V73.29H82.53v2.93H75.19v20.1H72.1Z"/><path class="cls-3" d="M82.11,80.9H85v2.38h.07a4.07,4.07,0,0,1,.77-1.12,5,5,0,0,1,1.08-.87,6.39,6.39,0,0,1,1.3-.57,4.93,4.93,0,0,1,1.42-.21,4,4,0,0,1,1.28.2l-.13,3.15c-.23-.06-.47-.12-.7-.16a4.69,4.69,0,0,0-4,1.14A5.33,5.33,0,0,0,85,88.58v7.74H82.11Z"/><path class="cls-3" d="M94.08,82.79a7.93,7.93,0,0,1,2.83-1.71,9.54,9.54,0,0,1,3.21-.57,8.48,8.48,0,0,1,2.88.43,5.56,5.56,0,0,1,2,1.13,4.38,4.38,0,0,1,1.14,1.65,5.07,5.07,0,0,1,.38,1.93v7.87q0,.81,0,1.5c0,.45,0,.89.09,1.3h-2.57c-.06-.78-.1-1.56-.1-2.34h-.06a5.58,5.58,0,0,1-2.29,2.11,7.58,7.58,0,0,1-5.08.33,5,5,0,0,1-1.69-.88,4.27,4.27,0,0,1-1.14-1.45,5,5,0,0,1,.24-4.5,5,5,0,0,1,1.8-1.65A8.83,8.83,0,0,1,98.4,87a18.82,18.82,0,0,1,3.27-.27h2.12v-.65a3.23,3.23,0,0,0-.22-1.17,3.15,3.15,0,0,0-.68-1.06,3.34,3.34,0,0,0-1.12-.75,4.33,4.33,0,0,0-1.61-.28,5.82,5.82,0,0,0-1.47.17,6.61,6.61,0,0,0-1.14.4,6.07,6.07,0,0,0-.93.57l-.81.62Zm8.17,6.11a19.06,19.06,0,0,0-2.11.12,7.72,7.72,0,0,0-2,.44,3.74,3.74,0,0,0-1.45.91,2,2,0,0,0-.56,1.49,2.13,2.13,0,0,0,.88,1.92,4.3,4.3,0,0,0,2.4.59,4.65,4.65,0,0,0,2-.41,3.86,3.86,0,0,0,1.35-1.06,4.11,4.11,0,0,0,.74-1.44,5.79,5.79,0,0,0,.22-1.58v-1Z"/><path class="cls-3" d="M110.71,80.9h2.9v2.38h.06a4.25,4.25,0,0,1,1.9-2,6.22,6.22,0,0,1,3.12-.77,6.8,6.8,0,0,1,2.11.34,4.84,4.84,0,0,1,1.77,1.06,5.16,5.16,0,0,1,1.2,1.84,7.1,7.1,0,0,1,.45,2.65v9.92h-2.89V87.21a5.3,5.3,0,0,0-.29-1.84,3.5,3.5,0,0,0-.77-1.23,2.93,2.93,0,0,0-1.11-.68,4.14,4.14,0,0,0-1.31-.22,4.55,4.55,0,0,0-1.67.3,3.36,3.36,0,0,0-1.35.92,4.33,4.33,0,0,0-.9,1.61,7.24,7.24,0,0,0-.32,2.31v7.94h-2.9Z"/><path class="cls-3" d="M136.71,84.77a4.68,4.68,0,0,0-1.28-1.09,3.64,3.64,0,0,0-1.85-.44,3.51,3.51,0,0,0-1.78.44A1.41,1.41,0,0,0,131,85a1.47,1.47,0,0,0,.44,1.1,3.38,3.38,0,0,0,1,.69,6.27,6.27,0,0,0,1.27.39l1.16.22a14.35,14.35,0,0,1,1.75.56,4.67,4.67,0,0,1,1.41.84A3.73,3.73,0,0,1,139,90a4.51,4.51,0,0,1,.34,1.82,4.36,4.36,0,0,1-.55,2.23,4.67,4.67,0,0,1-1.42,1.51,5.88,5.88,0,0,1-2,.85,9.91,9.91,0,0,1-2.23.26,8.72,8.72,0,0,1-3.33-.59A6,6,0,0,1,127.31,94l2.19-1.82a8.83,8.83,0,0,0,1.58,1.26,3.82,3.82,0,0,0,2.12.56,5.38,5.38,0,0,0,1.11-.12,3.13,3.13,0,0,0,1-.36,2.08,2.08,0,0,0,.7-.61,1.39,1.39,0,0,0,.28-.86,1.53,1.53,0,0,0-.4-1.08,3,3,0,0,0-1-.66,5.92,5.92,0,0,0-1.19-.39l-1.11-.25a17.49,17.49,0,0,1-1.77-.52,5.09,5.09,0,0,1-1.48-.78,3.63,3.63,0,0,1-1-1.23,4,4,0,0,1-.39-1.86,4.29,4.29,0,0,1,.5-2.1,4.7,4.7,0,0,1,1.32-1.48,5.84,5.84,0,0,1,1.87-.87,7.58,7.58,0,0,1,2.11-.3,7.74,7.74,0,0,1,3,.59,4.72,4.72,0,0,1,2.25,2Z"/><path class="cls-3" d="M142.43,75.37a2.07,2.07,0,0,1,.63-1.51,2.09,2.09,0,0,1,3,0,2.07,2.07,0,0,1,.63,1.51,2.09,2.09,0,0,1-.63,1.52,2.09,2.09,0,0,1-3,0A2.09,2.09,0,0,1,142.43,75.37Zm.68,5.53H146V96.32h-2.89Z"/><path class="cls-3" d="M158.78,83.44h-4.16v7c0,.44,0,.86,0,1.29a3.29,3.29,0,0,0,.24,1.13,1.86,1.86,0,0,0,.64.82,2.22,2.22,0,0,0,1.27.31,6.44,6.44,0,0,0,1.06-.1,3,3,0,0,0,1-.36v2.67a3.73,3.73,0,0,1-1.33.4,9.46,9.46,0,0,1-1.27.12,5.81,5.81,0,0,1-2.59-.47A3.2,3.2,0,0,1,152.32,95a4.08,4.08,0,0,1-.51-1.68c-.05-.62-.08-1.24-.08-1.87v-8h-3.35V80.9h3.35V76.58h2.89V80.9h4.16Z"/><path class="cls-3" d="M162.06,75.37a2.1,2.1,0,0,1,.62-1.51,2.1,2.1,0,0,1,3,0,2.1,2.1,0,0,1,.62,1.51,2.12,2.12,0,0,1-.62,1.52,2.1,2.1,0,0,1-3,0A2.12,2.12,0,0,1,162.06,75.37Zm.67,5.53h2.9V96.32h-2.9Z"/><path class="cls-3" d="M169.49,88.61a7.84,7.84,0,0,1,.63-3.15,8.15,8.15,0,0,1,10.66-4.31,7.79,7.79,0,0,1,2.57,1.74,8.14,8.14,0,0,1,1.73,2.57,8,8,0,0,1,.62,3.15,8.18,8.18,0,0,1-.62,3.17,8,8,0,0,1-1.73,2.57,8.21,8.21,0,0,1-8.94,1.72,8,8,0,0,1-2.57-1.72,7.84,7.84,0,0,1-1.72-2.57A8,8,0,0,1,169.49,88.61Zm3.09,0a6.28,6.28,0,0,0,.35,2.16,4.8,4.8,0,0,0,1,1.69,4.56,4.56,0,0,0,1.57,1.11,5.56,5.56,0,0,0,4.19,0,4.56,4.56,0,0,0,1.57-1.11,4.8,4.8,0,0,0,1-1.69,6.84,6.84,0,0,0,0-4.32,4.89,4.89,0,0,0-1-1.69,4.56,4.56,0,0,0-1.57-1.11,5.56,5.56,0,0,0-4.19,0,4.56,4.56,0,0,0-1.57,1.11,4.89,4.89,0,0,0-1,1.69A6.28,6.28,0,0,0,172.58,88.61Z"/><path class="cls-3" d="M189.34,80.9h2.89v2.38h.07a4.25,4.25,0,0,1,1.9-2,6.22,6.22,0,0,1,3.12-.77,6.8,6.8,0,0,1,2.11.34,4.72,4.72,0,0,1,1.76,1.06,5,5,0,0,1,1.21,1.84,7.1,7.1,0,0,1,.45,2.65v9.92H200V87.21a5.3,5.3,0,0,0-.29-1.84,3.38,3.38,0,0,0-.78-1.23,2.78,2.78,0,0,0-1.11-.68,4,4,0,0,0-1.3-.22,4.55,4.55,0,0,0-1.67.3,3.36,3.36,0,0,0-1.35.92,4.33,4.33,0,0,0-.9,1.61,7.23,7.23,0,0,0-.33,2.31v7.94h-2.89Z"/><path class="cls-3" d="M207.29,82.79a8.1,8.1,0,0,1,2.83-1.71,9.59,9.59,0,0,1,3.22-.57,8.52,8.52,0,0,1,2.88.43,5.75,5.75,0,0,1,2,1.13,4.62,4.62,0,0,1,1.14,1.65,5.06,5.06,0,0,1,.37,1.93v7.87q0,.81,0,1.5c0,.45.06.89.1,1.3h-2.57c-.07-.78-.1-1.56-.1-2.34h-.07a5.56,5.56,0,0,1-2.28,2.11,7.17,7.17,0,0,1-3.06.62,7.1,7.1,0,0,1-2-.29,4.94,4.94,0,0,1-1.69-.88,4,4,0,0,1-1.14-1.45,5,5,0,0,1,.24-4.5,5,5,0,0,1,1.8-1.65,8.83,8.83,0,0,1,2.67-.91,18.78,18.78,0,0,1,3.26-.27H217v-.65a3.25,3.25,0,0,0-.23-1.17,3.12,3.12,0,0,0-.67-1.06,3.38,3.38,0,0,0-1.13-.75,4.33,4.33,0,0,0-1.61-.28,5.74,5.74,0,0,0-1.46.17,6.61,6.61,0,0,0-1.14.4,5.72,5.72,0,0,0-.94.57c-.28.22-.54.43-.8.62Zm8.17,6.11a18.88,18.88,0,0,0-2.1.12,7.8,7.8,0,0,0-2,.44,3.63,3.63,0,0,0-1.44.91,2.05,2.05,0,0,0-.57,1.49,2.13,2.13,0,0,0,.89,1.92,4.29,4.29,0,0,0,2.39.59,4.62,4.62,0,0,0,2-.41A3.69,3.69,0,0,0,216,92.9a4,4,0,0,0,.74-1.44,5.81,5.81,0,0,0,.23-1.58v-1Z"/><path class="cls-3" d="M224.15,71.73h2.9V96.32h-2.9Z"/><path class="cls-3" d="M257.19,78.27a6.3,6.3,0,0,0-2.44-2,7.19,7.19,0,0,0-3.06-.69,8.08,8.08,0,0,0-3.49.74,7.88,7.88,0,0,0-2.67,2,8.91,8.91,0,0,0-1.72,3A10.73,10.73,0,0,0,243.2,85a10.36,10.36,0,0,0,.57,3.45,8.71,8.71,0,0,0,1.68,2.86,8,8,0,0,0,2.67,2,8.49,8.49,0,0,0,3.57.72,6.92,6.92,0,0,0,3.44-.82,7.44,7.44,0,0,0,2.51-2.27l2.61,2a10.48,10.48,0,0,1-.9,1,9.51,9.51,0,0,1-1.71,1.33,12.48,12.48,0,0,1-2.56,1.17,10.67,10.67,0,0,1-3.45.5,11.06,11.06,0,0,1-4.88-1,11.68,11.68,0,0,1-3.7-2.73,11.83,11.83,0,0,1-2.33-3.82,12.05,12.05,0,0,1-.81-4.31,13.62,13.62,0,0,1,.87-4.93,11.8,11.8,0,0,1,2.43-3.9A10.94,10.94,0,0,1,247,73.62a12.41,12.41,0,0,1,4.83-.91,11.62,11.62,0,0,1,4.42.88,8.28,8.28,0,0,1,3.56,2.69Z"/><path class="cls-3" d="M263.3,82.79a8.06,8.06,0,0,1,2.84-1.71,9.54,9.54,0,0,1,3.21-.57,8.48,8.48,0,0,1,2.88.43,5.56,5.56,0,0,1,2,1.13,4.38,4.38,0,0,1,1.14,1.65,5.06,5.06,0,0,1,.37,1.93v7.87q0,.81,0,1.5c0,.45.06.89.1,1.3h-2.57c-.07-.78-.1-1.56-.1-2.34h-.06a5.64,5.64,0,0,1-2.29,2.11,7.58,7.58,0,0,1-5.08.33,4.94,4.94,0,0,1-1.69-.88,4.27,4.27,0,0,1-1.14-1.45,5,5,0,0,1,.24-4.5,5,5,0,0,1,1.8-1.65,8.83,8.83,0,0,1,2.67-.91,18.82,18.82,0,0,1,3.27-.27H273v-.65a3.25,3.25,0,0,0-.23-1.17,3.12,3.12,0,0,0-.67-1.06,3.38,3.38,0,0,0-1.13-.75,4.3,4.3,0,0,0-1.61-.28,5.8,5.8,0,0,0-1.46.17,6.61,6.61,0,0,0-1.14.4,5.62,5.62,0,0,0-.93.57l-.81.62Zm8.18,6.11a19.06,19.06,0,0,0-2.11.12,7.72,7.72,0,0,0-2,.44,3.67,3.67,0,0,0-1.45.91,2,2,0,0,0-.56,1.49,2.13,2.13,0,0,0,.88,1.92,4.3,4.3,0,0,0,2.4.59,4.57,4.57,0,0,0,2-.41,3.69,3.69,0,0,0,1.35-1.06,4,4,0,0,0,.74-1.44,5.81,5.81,0,0,0,.23-1.58v-1Z"/><path class="cls-3" d="M279.94,80.9h2.89v2.38h.07a4.07,4.07,0,0,1,.77-1.12,5,5,0,0,1,1.08-.87,6.39,6.39,0,0,1,1.3-.57,4.93,4.93,0,0,1,1.42-.21,4,4,0,0,1,1.28.2l-.13,3.15c-.23-.06-.47-.12-.7-.16a4.38,4.38,0,0,0-.71-.07A4.24,4.24,0,0,0,284,84.84a5.33,5.33,0,0,0-1.13,3.74v7.74h-2.89Z"/><path class="cls-3" d="M293.45,89.68a4,4,0,0,0,.43,1.84A4.53,4.53,0,0,0,295,92.94a5.22,5.22,0,0,0,1.64.91,6,6,0,0,0,1.93.32,4.32,4.32,0,0,0,2.35-.63,7.55,7.55,0,0,0,1.83-1.68L305,93.55a8,8,0,0,1-6.76,3.16,8.31,8.31,0,0,1-3.26-.62,7,7,0,0,1-2.48-1.71,7.36,7.36,0,0,1-1.56-2.57,9,9,0,0,1-.55-3.2,8.4,8.4,0,0,1,.6-3.2,7.8,7.8,0,0,1,1.64-2.57,7.38,7.38,0,0,1,2.49-1.71,8,8,0,0,1,3.15-.62,7.41,7.41,0,0,1,3.43.72A6.84,6.84,0,0,1,304,83.1a7.31,7.31,0,0,1,1.3,2.6,10.87,10.87,0,0,1,.41,2.94v1Zm9.14-2.34a6.32,6.32,0,0,0-.31-1.79,3.82,3.82,0,0,0-.82-1.41,3.64,3.64,0,0,0-1.37-.94,4.86,4.86,0,0,0-1.91-.35,4.63,4.63,0,0,0-1.95.41,4.53,4.53,0,0,0-1.49,1.06,4.61,4.61,0,0,0-.95,1.45,3.9,3.9,0,0,0-.34,1.57Z"/></g></g></svg>