<svg xmlns="http://www.w3.org/2000/svg" xmlns:xlink="http://www.w3.org/1999/xlink" viewBox="0 0 373.44 140.49"><defs><style>.cls-1{font-size:50.71px;fill:#5282bc;font-family:Montserrat-Regular, Montserrat;letter-spacing:-0.05em;}.cls-2{letter-spacing:-0.03em;}.cls-3{letter-spacing:-0.03em;}.cls-4{letter-spacing:-0.03em;}.cls-5{letter-spacing:-0.02em;}.cls-6{letter-spacing:-0.04em;}.cls-7{letter-spacing:-0.03em;}.cls-8{fill:url(#linear-gradient);}</style><linearGradient id="linear-gradient" x1="69.07" y1="18.78" x2="300.07" y2="18.78" gradientUnits="userSpaceOnUse"><stop offset="0" stop-color="#dee4e9"/><stop offset="0.05" stop-color="#d6e0e8"/><stop offset="0.12" stop-color="#c0d6e7"/><stop offset="0.21" stop-color="#9dc4e4"/><stop offset="0.21" stop-color="#9cc4e4"/><stop offset="0.25" stop-color="#8ec8df"/><stop offset="0.31" stop-color="#83cbdb"/><stop offset="0.39" stop-color="#7ccdd9"/><stop offset="0.62" stop-color="#7aced8"/><stop offset="0.83" stop-color="#5589bf"/><stop offset="0.96" stop-color="#4e75a1"/></linearGradient></defs><title>Asset 1</title><g id="Layer_2" data-name="Layer 2"><g id="Layer_1-2" data-name="Layer 1"><text/><text class="cls-1" transform="translate(0 66.31)">C<tspan class="cls-2" x="33.72" y="0">on</tspan><tspan class="cls-3" x="96.69" y="0">n</tspan><tspan class="cls-4" x="129.55" y="0">e</tspan><tspan class="cls-5" x="158.6" y="0">c</tspan><tspan class="cls-6" x="185.88" y="0">t</tspan><tspan class="cls-2" x="204.39" y="0">-Ho</tspan><tspan class="cls-3" x="292.06" y="0">m</tspan><tspan class="cls-7" x="344.38" y="0">e</tspan></text><path class="cls-8" d="M71.57,35.08a206.49,206.49,0,0,1,53.82-25.7,194.58,194.58,0,0,1,29.22-6.83c2.47-.47,5-.71,7.45-1s5-.67,7.48-.79l7.51-.53c2.51-.12,5-.12,7.53-.18a191.3,191.3,0,0,1,30,1.86,204.94,204.94,0,0,1,57.81,16.63A207,207,0,0,1,298.92,33a2.5,2.5,0,0,1-2.69,4.22,221.41,221.41,0,0,0-26-13.89A206.75,206.75,0,0,0,242.7,13a211.46,211.46,0,0,0-116.6-1.21,221.44,221.44,0,0,0-54.53,23.3Z"/></g></g></svg>